HIERARCHY
ROOT Hips
{
	OFFSET 0.000000 0.000000 0.000000
	CHANNELS 6 Xposition Yposition Zposition Zrotation Yrotation Xrotation 
	JOINT LeftUpLeg_virtual
	{
		OFFSET 0.000000 0.000000 0.000000
		CHANNELS 3 Zrotation Yrotation Xrotation
		JOINT LeftUpLeg
		{
			OFFSET 10.205400 -3.823500 0.155100
			CHANNELS 3 Zrotation Yrotation Xrotation
			JOINT LeftLeg
			{
				OFFSET 0.708757 -12.982077 0.567790
				CHANNELS 3 Zrotation Yrotation Xrotation
				JOINT LeftFoot
				{
					OFFSET -0.708756 -10.717838 -2.184338
					CHANNELS 3 Zrotation Yrotation Xrotation
					JOINT LeftToeBase
					{
						OFFSET 0.108149 -7.191104 7.560241
						CHANNELS 3 Zrotation Yrotation Xrotation
						End Site
						{
							OFFSET 0.000000 0.000000 0.000000
						}
					}
				}
			}
		}
	}
	JOINT RightUpLeg_virtual
	{
		OFFSET 0.000000 0.000000 0.000000
		CHANNELS 3 Zrotation Yrotation Xrotation
		JOINT RightUpLeg
		{
			OFFSET -10.205400 -3.823500 0.005500
			CHANNELS 3 Zrotation Yrotation Xrotation
			JOINT RightLeg
			{
				OFFSET -0.708756 -12.982134 0.610632
				CHANNELS 3 Zrotation Yrotation Xrotation
				JOINT RightFoot
				{
					OFFSET 0.708754 -10.717769 -1.945823
					CHANNELS 3 Zrotation Yrotation Xrotation
					JOINT RightToeBase
					{
						OFFSET -0.108140 -7.191069 7.372968
						CHANNELS 3 Zrotation Yrotation Xrotation
						End Site
						{
							OFFSET 0.000000 0.000000 0.000000
						}
					}
				}
			}
		}
	}
	JOINT Spine_virtual
	{
		OFFSET 0.000000 0.000000 0.000000
		CHANNELS 3 Zrotation Yrotation Xrotation
		JOINT Spine
		{
			OFFSET 0.000000 6.876099 0.125700
			CHANNELS 3 Zrotation Yrotation Xrotation
			JOINT Spine1
			{
				OFFSET 0.000000 8.022060 0.146608
				CHANNELS 3 Zrotation Yrotation Xrotation
				JOINT Spine2
				{
					OFFSET 0.000000 9.168068 0.167552
					CHANNELS 3 Zrotation Yrotation Xrotation
					JOINT Neck_virtual
					{
						OFFSET 0.000000 0.000000 0.000000
						CHANNELS 3 Zrotation Yrotation Xrotation
						JOINT Neck
						{
							OFFSET 0.000000 10.314075 0.188496
							CHANNELS 3 Zrotation Yrotation Xrotation
							JOINT Head
							{
								OFFSET 0.000000 7.643700 -2.377400
								CHANNELS 3 Zrotation Yrotation Xrotation
								End Site
								{
									OFFSET 0.000000 0.000000 0.000000
								}
							}
						}
					}
					JOINT LeftShoulder_virtual
					{
						OFFSET 0.000000 0.000000 0.000000
						CHANNELS 3 Zrotation Yrotation Xrotation
						JOINT LeftShoulder
						{
							OFFSET 4.392200 8.824978 0.174984
							CHANNELS 3 Zrotation Yrotation Xrotation
							JOINT LeftArm
							{
								OFFSET 8.771219 -2.981674 -0.026999
								CHANNELS 3 Zrotation Yrotation Xrotation
								JOINT LeftForeArm
								{
									OFFSET 8.512804 0.000000 -0.000000
									CHANNELS 3 Zrotation Yrotation Xrotation
									JOINT LeftHand
									{
										OFFSET 18.484802 0.000000 -0.000000
										CHANNELS 3 Zrotation Yrotation Xrotation
										End Site
										{
											OFFSET 0.000000 0.000000 0.000000
										}
									}
								}
							}
						}
					}
					JOINT RightShoulder_virtual
					{
						OFFSET 0.000000 0.000000 0.000000
						CHANNELS 3 Zrotation Yrotation Xrotation
						JOINT RightShoulder
						{
							OFFSET -4.392200 8.824993 0.141379
							CHANNELS 3 Zrotation Yrotation Xrotation
							JOINT RightArm
							{
								OFFSET -8.771282 -2.981682 -0.094208
								CHANNELS 3 Zrotation Yrotation Xrotation
								JOINT RightForeArm
								{
									OFFSET -8.494598 0.000000 0.000000
									CHANNELS 3 Zrotation Yrotation Xrotation
									JOINT RightHand
									{
										OFFSET -18.483803 0.000000 0.000001
										CHANNELS 3 Zrotation Yrotation Xrotation
										End Site
										{
											OFFSET 0.000000 0.000000 0.000000
										}
									}
								}
							}
						}
					}
				}
			}
		}
	}
}
MOTION
Frames: 13
Frame Time: 0.033333
-0.878617 35.691185 23.361256 179.945514 2.887308 179.813527 -2.437565 -3.156041 9.837480 -17.027238 -1.560049 -19.241177 15.009472 7.820662 15.266769 2.201688 -1.903766 7.903593 0.000000 0.000000 0.000000 1.844251 -1.813044 8.962816 2.931477 -0.762341 -18.623073 -5.962117 2.110477 19.213264 4.110667 2.387809 6.987713 0.000000 0.000000 0.000000 0.976302 0.224799 -0.767675 -4.126381 1.737299 -5.843010 -0.565443 -3.614372 2.355054 0.002935 -0.007325 -0.004773 -0.862103 -1.991333 5.080214 -5.365337 4.845926 8.799477 0.000000 0.000000 0.000000 0.751454 -1.230495 2.100111 -4.640916 0.838132 -6.614643 -2.728843 6.383907 -40.984796 -2.138750 -44.022509 -2.361870 0.000000 0.000000 0.000000 -2.849135 -0.504604 1.607908 18.895003 -3.964840 -15.992104 13.834654 -12.863699 -49.020688 -1.207472 22.508789 1.203393 0.000000 0.000000 0.000000 
-0.870815 35.685688 23.357918 179.905543 2.895435 179.815617 -2.533226 -3.023976 9.678016 -16.953528 -1.207604 -19.455492 14.929050 7.827222 15.153347 2.138245 -2.111631 8.200601 0.000000 0.000000 0.000000 1.839487 -1.914110 8.917521 2.929701 -0.841131 -18.716870 -5.965566 2.064105 19.023566 4.125672 2.429533 7.323395 0.000000 0.000000 0.000000 0.931676 0.215315 -0.813455 -4.160488 1.755502 -5.761428 -0.584579 -3.589087 2.361781 -0.016797 0.015136 -0.019691 -0.845601 -2.083266 5.033205 -5.333267 4.810974 8.795153 0.000000 0.000000 0.000000 0.778592 -1.226027 2.072855 -4.620924 0.896139 -6.649812 -2.774276 6.461323 -40.892158 -2.115276 -44.110267 -2.397956 0.000000 0.000000 0.000000 -2.833463 -0.526862 1.525010 18.975597 -3.984224 -15.948328 13.846474 -12.933727 -48.946123 -1.183553 22.650465 1.200076 0.000000 0.000000 0.000000 
-0.860954 35.674770 23.334198 179.977356 2.773112 179.806151 -2.432357 -3.165594 9.717004 -17.043673 -1.318350 -19.443715 15.170458 7.765388 15.294947 2.035779 -1.760204 8.128173 0.000000 0.000000 0.000000 1.892214 -2.018825 8.957195 2.967635 -0.883904 -18.778637 -5.954902 2.068554 19.150759 4.074986 2.509846 7.206187 0.000000 0.000000 0.000000 0.972548 0.164726 -0.772831 -4.116626 1.700182 -5.792949 -0.542958 -3.618176 2.341179 0.016774 -0.024006 -0.037440 -0.858714 -1.908245 5.046954 -5.329180 4.773824 8.811276 0.000000 0.000000 0.000000 0.737170 -1.177260 2.081535 -4.738619 0.962268 -6.658515 -2.742002 6.563303 -40.772531 -2.161109 -43.987036 -2.362377 0.000000 0.000000 0.000000 -2.878677 -0.534502 1.595463 18.996209 -3.987892 -15.996626 14.049909 -12.863326 -48.970947 -1.196577 22.860228 1.161275 0.000000 0.000000 0.000000 
-0.846787 35.666309 23.295477 179.890394 2.824492 179.761290 -2.523127 -3.165689 9.815780 -17.012736 -1.501844 -19.431972 15.130920 7.645260 15.323453 2.112428 -1.754098 8.130063 0.000000 0.000000 0.000000 1.762867 -1.984328 9.051584 3.019668 -1.003375 -18.792548 -5.948844 2.033504 19.203953 4.102840 2.481169 7.173680 0.000000 0.000000 0.000000 0.902041 0.217803 -0.703549 -4.131981 1.672335 -5.855434 -0.582148 -3.578789 2.311194 -0.019251 0.000691 0.015766 -0.820328 -2.127890 4.979352 -5.289244 4.750780 8.770816 0.000000 0.000000 0.000000 0.777512 -1.237451 2.101482 -4.880250 0.996765 -6.590060 -2.659192 6.733446 -40.819427 -2.131729 -43.770782 -2.441118 0.000000 0.000000 0.000000 -2.807684 -0.559542 1.566787 19.072560 -4.035967 -15.979701 14.127626 -12.942029 -49.114237 -1.093149 23.023132 1.171254 0.000000 0.000000 0.000000 
-0.833469 35.656921 23.250069 179.924190 2.994926 179.789963 -2.471567 -3.093853 9.867757 -17.088594 -1.587662 -19.475629 15.355899 7.589285 15.425410 2.055133 -1.630047 8.055007 0.000000 0.000000 0.000000 1.730269 -1.821773 9.133139 3.110035 -1.097158 -18.767184 -5.807991 2.168115 19.104439 4.005948 2.391517 7.214417 0.000000 0.000000 0.000000 0.907346 0.287457 -0.685568 -4.038341 1.615207 -6.005271 -0.561604 -3.538708 2.326508 0.020955 0.032252 -0.035660 -0.890265 -2.079723 5.057551 -5.281266 4.685423 8.785584 0.000000 0.000000 0.000000 0.699282 -1.223801 2.215020 -5.008460 1.006497 -6.604238 -2.490871 6.881359 -40.844111 -2.118989 -43.549887 -2.468543 0.000000 0.000000 0.000000 -2.871919 -0.532210 1.628595 19.156080 -4.031171 -15.931119 14.236512 -12.910475 -49.346877 -1.059836 23.182200 1.164349 0.000000 0.000000 0.000000 
-0.828419 35.646614 23.206440 179.895476 3.189582 179.857309 -2.480002 -3.058980 9.906573 -17.103355 -1.653301 -19.506703 15.358020 7.487936 15.493352 2.190800 -1.562622 7.981157 0.000000 0.000000 0.000000 1.636803 -1.720542 9.173791 3.158733 -1.002574 -18.737072 -5.852627 1.983227 18.982921 4.205826 2.336334 7.208015 0.000000 0.000000 0.000000 0.878131 0.287873 -0.692477 -3.971287 1.489559 -6.210621 -0.616306 -3.459174 2.359403 -0.012129 0.055683 -0.005749 -0.891483 -2.047101 5.090788 -5.283466 4.603015 8.835101 0.000000 0.000000 0.000000 0.710026 -1.158106 2.287413 -5.118237 1.135383 -6.817243 -2.391715 6.944506 -40.798223 -2.217873 -43.332691 -2.391090 0.000000 0.000000 0.000000 -2.859238 -0.507991 1.662107 19.235785 -4.052583 -15.948174 14.363345 -12.973265 -49.899330 -0.871073 23.331315 1.330150 0.000000 0.000000 0.000000 
-0.831696 35.642155 23.152054 179.887457 3.393743 179.835561 -2.507540 -3.075750 9.947550 -17.128441 -1.765313 -19.479869 15.415199 7.423762 15.583580 2.292718 -1.484834 7.952154 0.000000 0.000000 0.000000 1.583666 -1.738682 9.228793 3.183596 -0.940595 -18.601230 -5.902457 1.912793 18.811120 4.232424 2.550807 7.246855 0.000000 0.000000 0.000000 0.853164 0.301310 -0.631199 -3.864263 1.350789 -6.409488 -0.649761 -3.485790 2.387571 -0.013797 0.009881 -0.007239 -0.952018 -1.993369 5.155161 -5.248211 4.507196 8.941151 0.000000 0.000000 0.000000 0.651024 -1.104621 2.312586 -5.217220 1.236055 -6.505259 -2.252680 7.147240 -40.809929 -2.117523 -43.172806 -2.488207 0.000000 0.000000 0.000000 -2.906571 -0.394919 1.790534 19.337611 -4.019921 -16.013981 14.558465 -13.064592 -50.324472 -0.846327 23.422845 1.336173 0.000000 0.000000 0.000000 
-0.843575 35.642727 23.094673 179.959488 3.560685 179.859057 -2.453095 -3.185791 9.951703 -17.204589 -1.787766 -19.448887 15.617518 7.393594 15.745234 2.287330 -1.386337 7.833418 0.000000 0.000000 0.000000 1.607819 -1.820475 9.167974 3.189524 -0.901845 -18.465739 -5.913177 2.034342 18.604547 4.294365 2.575546 7.235871 0.000000 0.000000 0.000000 0.866419 0.287985 -0.623055 -3.712801 1.230976 -6.646439 -0.629928 -3.481027 2.428841 0.044788 -0.021615 -0.016719 -1.059277 -1.868667 5.228529 -5.268669 4.349916 9.131668 0.000000 0.000000 0.000000 0.565752 -1.002730 2.409484 -5.237556 1.342391 -6.628462 -2.322301 7.230781 -40.681006 -2.086359 -43.183649 -2.459877 0.000000 0.000000 0.000000 -2.987855 -0.294700 1.839726 19.438510 -4.169232 -16.108745 14.729267 -13.296507 -50.882078 -0.777458 23.511410 1.447663 0.000000 0.000000 0.000000 
-0.862501 35.646744 23.027599 179.955964 3.805521 179.885736 -2.523451 -3.199096 9.940831 -17.162143 -1.785222 -19.375795 15.580339 7.314654 15.891209 2.524287 -1.281741 7.759704 0.000000 0.000000 0.000000 1.537858 -1.784520 9.102761 3.196711 -0.879054 -18.223686 -5.919193 2.130080 18.303018 4.373207 2.599033 7.316674 0.000000 0.000000 0.000000 0.827189 0.144987 -0.674645 -3.596428 1.232584 -6.882712 -0.646029 -3.367905 2.440683 0.011873 0.043876 -0.018042 -1.028278 -1.694230 5.261361 -5.293914 4.163389 9.342398 0.000000 0.000000 0.000000 0.569304 -0.978054 2.442641 -5.306104 1.354934 -6.475497 -2.459895 7.382104 -40.626245 -2.041888 -43.167933 -2.383846 0.000000 0.000000 0.000000 -2.978320 -0.298745 1.900454 19.517085 -4.145802 -15.937654 14.943849 -13.644327 -51.570749 -0.724091 23.540995 1.752147 0.000000 0.000000 0.000000 
-0.883330 35.649994 22.951286 179.952467 3.864692 179.908549 -2.583755 -3.279490 9.920393 -17.170580 -1.890732 -19.221377 15.651368 7.334325 16.065530 2.661706 -1.247382 7.696032 0.000000 0.000000 0.000000 1.484892 -1.840541 9.054459 3.208816 -0.836789 -17.941520 -5.927893 2.217258 18.085689 4.449067 2.575092 7.346415 0.000000 0.000000 0.000000 0.768490 0.136218 -0.701637 -3.480909 1.140984 -7.112129 -0.615762 -3.345315 2.454533 0.014413 0.012069 -0.017808 -1.029335 -1.629160 5.287116 -5.280056 3.986321 9.601790 0.000000 0.000000 0.000000 0.592874 -0.862287 2.454470 -5.293889 1.397495 -6.500158 -2.748928 7.390741 -40.619336 -1.984695 -43.142330 -2.245449 0.000000 0.000000 0.000000 -2.962437 -0.217438 1.944125 19.569021 -4.148001 -15.829501 15.151933 -13.998445 -52.179961 -0.604781 23.569490 1.801782 0.000000 0.000000 0.000000 
-0.907746 35.650242 22.881147 179.957972 3.882095 179.883414 -2.593102 -3.284043 9.893820 -17.144246 -1.882826 -19.061111 15.616341 7.435835 16.165466 2.764270 -1.268014 7.609165 0.000000 0.000000 0.000000 1.439115 -1.828675 9.015431 3.207161 -0.782096 -17.666709 -5.973590 2.322912 17.997507 4.478520 2.491866 7.256514 0.000000 0.000000 0.000000 0.720632 0.027660 -0.649621 -3.378506 1.153123 -7.322027 -0.552680 -3.258025 2.430048 0.021915 0.049469 0.030190 -0.996197 -1.594480 5.285813 -5.213853 3.830909 9.905200 0.000000 0.000000 0.000000 0.612448 -0.764649 2.475955 -5.293285 1.358412 -6.540410 -3.249268 7.451057 -40.710612 -2.014076 -43.007806 -1.956199 0.000000 0.000000 0.000000 -2.935390 -0.138970 1.932588 19.537213 -4.076295 -15.489342 15.378273 -14.398435 -52.610044 -0.513915 23.564054 1.936991 0.000000 0.000000 0.000000 
-0.928846 35.649529 22.810673 179.859494 3.766150 179.912456 -2.747100 -3.393128 9.843474 -17.081671 -1.773266 -18.967413 15.368161 7.586003 16.270631 2.812200 -1.455529 7.454265 0.000000 0.000000 0.000000 1.379415 -1.855448 8.962226 3.170157 -0.699133 -17.473352 -6.022407 2.486656 18.060231 4.508427 2.354823 7.048487 0.000000 0.000000 0.000000 0.613712 0.137824 -0.602448 -3.323554 1.132412 -7.527387 -0.506592 -3.302426 2.435037 0.000993 -0.014554 -0.009904 -0.892755 -1.640726 5.338024 -5.131532 3.691313 10.225001 0.000000 0.000000 0.000000 0.727925 -0.784720 2.541711 -5.297389 1.220440 -6.371506 -4.004080 7.651179 -40.960535 -1.836560 -42.965151 -1.813745 0.000000 0.000000 0.000000 -2.812069 -0.134711 2.009930 19.450070 -3.964860 -15.079722 15.654773 -14.650319 -53.063787 -0.453470 23.581073 1.988321 0.000000 0.000000 0.000000 
-0.941923 35.645031 22.742376 -179.978053 3.706319 179.889452 -2.561530 -3.467255 9.853316 -17.091196 -1.653190 -18.862339 15.349735 7.737042 16.376579 2.813625 -1.473768 7.340427 0.000000 0.000000 0.000000 1.576054 -1.876560 8.936418 3.084151 -0.622060 -17.328361 -6.062690 2.469372 18.290809 4.561811 2.264723 6.756652 0.000000 0.000000 0.000000 0.671677 0.117667 -0.487226 -3.157757 1.201928 -7.626341 -0.395038 -3.329769 2.469731 0.009290 -0.029234 -0.014158 -0.858541 -1.714022 5.379327 -5.019965 3.575857 10.575072 0.000000 0.000000 0.000000 0.757797 -0.775887 2.568000 -5.413386 1.116718 -6.164196 -5.197686 8.138916 -41.287216 -1.802427 -43.185087 -1.442152 0.000000 0.000000 0.000000 -2.763925 -0.123944 2.050559 19.204871 -3.693810 -14.498050 16.217714 -14.946109 -53.478780 -0.354453 23.923434 1.991522 0.000000 0.000000 0.000000 
